# xmcd
#
# Track frame offsets:
#	150
#	22456
#	42155
#	64466
#	88310
#	103038
#	121821
#	144502
#	165542
#	187550
#
# Disc length: 2801 seconds
#
# Revision: 0
# Processed by: cddbd v1.5.2PL0 Copyright (c) Steve Scherf et al.
# Submitted via: FairStars CD Ripper 1.90
#
DISCID=880aef0a
DTITLE=Cam ly and Quang Dung - Hoi nguoi tinh Hay cho toi biet
DYEAR=2003
DGENRE=Blues
TTITLE0=Gio dong...Nguoi theo tinh moi
TTITLE1=Mua xuan
TTITLE2=Don anh ve voi mua xuan
TTITLE3=Chuyen ben
TTITLE4=Vo thang Dau
TTITLE5=Hay cho toi biet
TTITLE6=Lien khuc xuan da ve - don xuan 
TTITLE7=Em toi
TTITLE8=Hoi nguoi tinh
TTITLE9=Em quen mua dong
EXTD=
EXTT0=
EXTT1=
EXTT2=
EXTT3=
EXTT4=
EXTT5=
EXTT6=
EXTT7=
EXTT8=
EXTT9=
PLAYORDER=
